<svg width="300" height="200" viewBox="0 0 300 200" fill="none" xmlns="http://www.w3.org/2000/svg">
  <!-- Background elements -->
  <circle cx="150" cy="100" r="80" fill="url(#bgGradient)" opacity="0.1"/>
  
  <!-- Note cards -->
  <rect x="40" y="30" width="80" height="60" rx="8" fill="url(#card1)" stroke="url(#stroke1)" stroke-width="1" opacity="0.9"/>
  <rect x="180" y="50" width="80" height="60" rx="8" fill="url(#card2)" stroke="url(#stroke2)" stroke-width="1" opacity="0.9"/>
  <rect x="110" y="110" width="80" height="60" rx="8" fill="url(#card3)" stroke="url(#stroke3)" stroke-width="1" opacity="0.9"/>
  
  <!-- Card lines -->
  <line x1="50" y1="45" x2="110" y2="45" stroke="rgba(255,255,255,0.4)" stroke-width="1"/>
  <line x1="50" y1="55" x2="100" y2="55" stroke="rgba(255,255,255,0.4)" stroke-width="1"/>
  <line x1="50" y1="65" x2="90" y2="65" stroke="rgba(255,255,255,0.4)" stroke-width="1"/>
  
  <line x1="190" y1="65" x2="250" y2="65" stroke="rgba(255,255,255,0.4)" stroke-width="1"/>
  <line x1="190" y1="75" x2="240" y2="75" stroke="rgba(255,255,255,0.4)" stroke-width="1"/>
  <line x1="190" y1="85" x2="230" y2="85" stroke="rgba(255,255,255,0.4)" stroke-width="1"/>
  
  <line x1="120" y1="125" x2="180" y2="125" stroke="rgba(255,255,255,0.4)" stroke-width="1"/>
  <line x1="120" y1="135" x2="170" y2="135" stroke="rgba(255,255,255,0.4)" stroke-width="1"/>
  <line x1="120" y1="145" x2="160" y2="145" stroke="rgba(255,255,255,0.4)" stroke-width="1"/>
  
  <!-- Floating icons -->
  <circle cx="30" cy="30" r="4" fill="url(#icon1)" opacity="0.7"/>
  <circle cx="270" cy="40" r="3" fill="url(#icon2)" opacity="0.7"/>
  <circle cx="25" cy="170" r="5" fill="url(#icon3)" opacity="0.7"/>
  <circle cx="275" cy="160" r="4" fill="url(#icon4)" opacity="0.7"/>
  
  <!-- Connection lines -->
  <path d="M 80 60 Q 150 40 220 80" stroke="url(#connection1)" stroke-width="1" opacity="0.3" fill="none"/>
  <path d="M 150 140 Q 180 120 220 110" stroke="url(#connection2)" stroke-width="1" opacity="0.3" fill="none"/>
  
  <!-- Gradients -->
  <defs>
    <linearGradient id="bgGradient" x1="0%" y1="0%" x2="100%" y2="100%">
      <stop offset="0%" style="stop-color:#3B82F6;stop-opacity:1" />
      <stop offset="100%" style="stop-color:#8B5CF6;stop-opacity:1" />
    </linearGradient>
    
    <linearGradient id="card1" x1="0%" y1="0%" x2="100%" y2="100%">
      <stop offset="0%" style="stop-color:rgba(59, 130, 246, 0.2)" />
      <stop offset="100%" style="stop-color:rgba(59, 130, 246, 0.1)" />
    </linearGradient>
    <linearGradient id="stroke1" x1="0%" y1="0%" x2="100%" y2="100%">
      <stop offset="0%" style="stop-color:rgba(59, 130, 246, 0.5)" />
      <stop offset="100%" style="stop-color:rgba(59, 130, 246, 0.3)" />
    </linearGradient>
    
    <linearGradient id="card2" x1="0%" y1="0%" x2="100%" y2="100%">
      <stop offset="0%" style="stop-color:rgba(147, 51, 234, 0.2)" />
      <stop offset="100%" style="stop-color:rgba(147, 51, 234, 0.1)" />
    </linearGradient>
    <linearGradient id="stroke2" x1="0%" y1="0%" x2="100%" y2="100%">
      <stop offset="0%" style="stop-color:rgba(147, 51, 234, 0.5)" />
      <stop offset="100%" style="stop-color:rgba(147, 51, 234, 0.3)" />
    </linearGradient>
    
    <linearGradient id="card3" x1="0%" y1="0%" x2="100%" y2="100%">
      <stop offset="0%" style="stop-color:rgba(16, 185, 129, 0.2)" />
      <stop offset="100%" style="stop-color:rgba(16, 185, 129, 0.1)" />
    </linearGradient>
    <linearGradient id="stroke3" x1="0%" y1="0%" x2="100%" y2="100%">
      <stop offset="0%" style="stop-color:rgba(16, 185, 129, 0.5)" />
      <stop offset="100%" style="stop-color:rgba(16, 185, 129, 0.3)" />
    </linearGradient>
    
    <linearGradient id="icon1" x1="0%" y1="0%" x2="100%" y2="100%">
      <stop offset="0%" style="stop-color:#3B82F6" />
      <stop offset="100%" style="stop-color:#1D4ED8" />
    </linearGradient>
    <linearGradient id="icon2" x1="0%" y1="0%" x2="100%" y2="100%">
      <stop offset="0%" style="stop-color:#8B5CF6" />
      <stop offset="100%" style="stop-color:#7C3AED" />
    </linearGradient>
    <linearGradient id="icon3" x1="0%" y1="0%" x2="100%" y2="100%">
      <stop offset="0%" style="stop-color:#10B981" />
      <stop offset="100%" style="stop-color:#059669" />
    </linearGradient>
    <linearGradient id="icon4" x1="0%" y1="0%" x2="100%" y2="100%">
      <stop offset="0%" style="stop-color:#F59E0B" />
      <stop offset="100%" style="stop-color:#D97706" />
    </linearGradient>
    
    <linearGradient id="connection1" x1="0%" y1="0%" x2="100%" y2="100%">
      <stop offset="0%" style="stop-color:#3B82F6" />
      <stop offset="100%" style="stop-color:#8B5CF6" />
    </linearGradient>
    <linearGradient id="connection2" x1="0%" y1="0%" x2="100%" y2="100%">
      <stop offset="0%" style="stop-color:#8B5CF6" />
      <stop offset="100%" style="stop-color:#10B981" />
    </linearGradient>
  </defs>
</svg> 